<?xml version="1.0" encoding="UTF-8" standalone="no"?>
<svg
   version="1.1"
   preserveAspectRatio="xMidYMid meet"
   viewBox="788 423 300 300"
   id="svg869"
   sodipodi:docname="psplash-logo.svg"
   width="300"
   height="300"
   inkscape:version="1.1.1 (c3084ef, 2021-09-22)"
   xmlns:inkscape="http://www.inkscape.org/namespaces/inkscape"
   xmlns:sodipodi="http://sodipodi.sourceforge.net/DTD/sodipodi-0.dtd"
   xmlns="http://www.w3.org/2000/svg"
   xmlns:svg="http://www.w3.org/2000/svg">
  <defs
     id="defs873" />
  <sodipodi:namedview
     id="namedview871"
     pagecolor="#ffffff"
     bordercolor="#666666"
     borderopacity="1.0"
     inkscape:pageshadow="2"
     inkscape:pageopacity="0.0"
     inkscape:pagecheckerboard="0"
     showgrid="false"
     inkscape:zoom="1.1305031"
     inkscape:cx="60.150209"
     inkscape:cy="122.06954"
     inkscape:window-width="2152"
     inkscape:window-height="1122"
     inkscape:window-x="0"
     inkscape:window-y="23"
     inkscape:window-maximized="0"
     inkscape:current-layer="g5496" />
  <g
     data-item-type="text"
     data-item="Business"
     id="logo__item--business"
     class="logo__item">
    <g
       class="logo__item__inner"
       transform="translate(794.35,580.06168)"
       id="g826" />
  </g>
  <g
     id="g5496"
     transform="matrix(1.901965,0,0,1.901965,-712.95737,-384.74374)">
    <g
       id="g8584"
       transform="translate(19.027239,3.4402988)"
       inkscape:export-filename="./Raspberry-Pi-Video-Looper/board/tt_rpi/psplash-logo.png"
       inkscape:export-xdpi="96"
       inkscape:export-ydpi="96">
      <text
         data-part-id="logo__item--business"
         dy="0"
         dominant-baseline="auto"
         alignment-baseline="auto"
         font-family="Oswald"
         font-size="32px"
         fill="#7dbdda"
         letter-spacing="3"
         font-weight="normal"
         font-style="normal"
         data-font-family="Oswald"
         data-font-weight="normal"
         data-font-style="normal"
         data-ttf-url="/builder_assets/fontsttf/font-montserrat-bold-normal.ttf"
         data-font-filename="oswald-normal-normal"
         id="text824"
         x="-6.1570301"
         y="-6.6342139"
         style="font-size:24px;fill:#6aa1ba;fill-opacity:1"
         transform="translate(794.35,580.06168)"><tspan
           style="font-style:normal;font-variant:normal;font-weight:600;font-stretch:normal;font-size:24px;font-family:Montserrat;-inkscape-font-specification:'Montserrat Semi-Bold';fill:#6aa1ba;fill-opacity:1"
           id="tspan1391">LOOPER</tspan></text>
      <g
         data-item-type="image"
         data-item="Image"
         data-logo-item=""
         id="logo__item--logo_0"
         class="logo__item">
        <g
           class="logo__item__inner"
           transform="matrix(1.4139944,0,0,1.4139944,780.04158,415.5)"
           id="g866">
          <g
             id="g864">
            <linearGradient
               id="SVGID_1_"
               gradientUnits="userSpaceOnUse"
               x1="53.806599"
               y1="21.895"
               x2="53.806599"
               y2="89.497704">
              <stop
                 offset="0"
                 style="stop-color:#7DBDDA"
                 id="stop829" />
              <stop
                 offset="1"
                 style="stop-color:#659AB2"
                 id="stop831" />
            </linearGradient>
            <path
               fill-rule="evenodd"
               clip-rule="evenodd"
               fill="url(#SVGID_1_)"
               d="m 49.889,56.729 h 6.354 c 2.256,0 3.539,-0.337 3.539,-3.406 V 50.25 c 0,-2.093 -0.614,-3.394 -2.828,-3.394 h -1.799 c -1.984,0 -2.447,0.759 -2.447,2.389 v 3.015 c 0,1.047 -0.858,1.905 -1.907,1.905 h -3.863 c -1.051,0 -1.908,-0.858 -1.908,-1.905 v -2.807 c 0,-2.591 -2.017,-2.389 -3.755,-2.389 h -4.611 c -1.505,0 -2.736,-1.229 -2.736,-2.735 v -5.547 c 0,-1.505 1.231,-2.737 2.736,-2.737 h 5.549 c 1.505,0 2.737,1.232 2.737,2.737 v 4.544 c 0,2.005 0.433,3.163 2.953,3.163 h 1.493 c 1.78,0 2.958,-0.489 2.958,-2.659 v -2.836 c 0,-1.065 0.871,-1.935 1.935,-1.935 h 3.927 c 1.062,0 1.933,0.87 1.933,1.935 v 2.646 c 0,2.49 1.297,3.141 3.723,3.141 h 3.638 c 1.4,0 2.547,1.146 2.547,2.55 v 5.171 c 0,1.403 -1.146,2.55 -2.547,2.55 h -3.93 c -2.933,0 -3.562,1.042 -3.562,3.537 v 6.268 c 0,1.36 -1.112,2.474 -2.476,2.474 h -7.65 c -1.359,0 -2.476,-1.113 -2.476,-2.474 v -7.651 c -0.003,-1.362 1.114,-2.477 2.473,-2.477 z M 80.403,18.673 c -0.942,0 -1.714,0.772 -1.714,1.715 v 4.253 c 0,0.944 0.771,1.716 1.714,1.716 h 4.256 c 0.94,0 1.714,-0.772 1.714,-1.716 v -4.253 c 0,-0.943 -0.773,-1.715 -1.714,-1.715 z M 43.66,72.229 c -0.941,0 -1.716,0.771 -1.716,1.715 v 4.252 c 0,0.946 0.774,1.719 1.716,1.719 h 4.255 c 0.94,0 1.713,-0.772 1.713,-1.719 v -4.252 c 0,-0.943 -0.773,-1.715 -1.713,-1.715 z M 22.955,49.964 c -0.943,0 -1.715,0.773 -1.715,1.715 v 4.255 c 0,0.942 0.772,1.716 1.715,1.716 h 4.256 c 0.942,0 1.714,-0.773 1.714,-1.716 V 51.68 c 0,-0.942 -0.772,-1.715 -1.714,-1.715 h -4.256 z m 20.55,-22.417 c -0.942,0 -1.716,0.77 -1.716,1.713 v 4.253 c 0,0.944 0.773,1.716 1.716,1.716 h 4.255 c 0.94,0 1.714,-0.772 1.714,-1.716 V 29.26 c 0,-0.943 -0.773,-1.713 -1.714,-1.713 z"
               data-part-id="logo__item--logo_0__0"
               id="path834"
               style="fill:url(#SVGID_1_)" />
            <linearGradient
               id="SVGID_2_"
               gradientUnits="userSpaceOnUse"
               x1="68.986298"
               y1="21.893999"
               x2="68.986298"
               y2="89.4935">
              <stop
                 offset="0"
                 style="stop-color:#7DBDDA"
                 id="stop836" />
              <stop
                 offset="1"
                 style="stop-color:#659AB2"
                 id="stop838" />
            </linearGradient>
            <path
               fill-rule="evenodd"
               clip-rule="evenodd"
               fill="url(#SVGID_2_)"
               d="m 73.135,27.167 h -6.352 c -2.258,0 -3.541,0.339 -3.541,3.406 v 3.074 c 0,2.092 0.616,3.393 2.828,3.393 h 1.799 c 1.988,0 2.451,-0.759 2.451,-2.389 v -3.015 c 0,-1.05 0.854,-1.906 1.905,-1.906 h 3.865 c 1.048,0 1.907,0.858 1.907,1.904 v 2.81 c 0,2.588 2.013,2.385 3.752,2.385 l 4.61,10e-4 c 1.505,0 2.739,1.231 2.737,2.735 l 0.002,5.55 c -0.002,1.505 -1.234,2.734 -2.739,2.734 H 80.81 c -1.503,0 -2.734,-1.229 -2.734,-2.734 v -4.546 c 0,-2.006 -0.434,-3.165 -2.956,-3.165 h -1.492 c -1.778,10e-4 -2.956,0.49 -2.956,2.659 L 70.671,42.9 c 0.002,1.064 -0.867,1.933 -1.933,1.933 h -3.925 c -1.065,0 -1.935,-0.869 -1.935,-1.933 v -2.645 c 0,-2.492 -1.296,-3.143 -3.721,-3.143 H 55.52 c -1.403,0 -2.552,-1.146 -2.552,-2.548 v -5.172 c 0,-1.406 1.148,-2.552 2.552,-2.552 h 3.929 c 2.931,0.002 3.561,-1.04 3.561,-3.536 v -6.265 c 0,-1.362 1.115,-2.479 2.474,-2.479 h 7.65 c 1.363,0.002 2.479,1.117 2.479,2.479 v 7.649 c 0,1.361 -1.115,2.479 -2.478,2.479 z M 54.846,23.202 c 0.94,0 1.709,-0.771 1.709,-1.714 v -4.253 c 0,-0.944 -0.769,-1.716 -1.709,-1.716 h -4.257 c -0.944,0 -1.715,0.772 -1.715,1.716 v 4.253 c 0,0.943 0.771,1.714 1.713,1.714 z"
               data-part-id="logo__item--logo_0__1"
               id="path841"
               style="fill:url(#SVGID_2_)" />
            <linearGradient
               id="SVGID_3_"
               gradientUnits="userSpaceOnUse"
               x1="26.4834"
               y1="21.892599"
               x2="26.4834"
               y2="89.497002">
              <stop
                 offset="0"
                 style="stop-color:#7DBDDA"
                 id="stop843" />
              <stop
                 offset="1"
                 style="stop-color:#659AB2"
                 id="stop845" />
            </linearGradient>
            <path
               fill-rule="evenodd"
               clip-rule="evenodd"
               fill="url(#SVGID_3_)"
               d="m 22.445,64.892 v 6.349 c 0,2.258 0.339,3.54 3.405,3.54 h 3.074 c 2.092,0 3.393,-0.615 3.393,-2.827 l -10e-4,-1.801 c 10e-4,-1.985 -0.758,-2.448 -2.388,-2.448 h -3.015 c -1.05,0 -1.904,-0.854 -1.904,-1.905 l -0.001,-3.864 c 0.001,-1.05 0.858,-1.905 1.905,-1.905 h 2.808 c 2.589,0 2.385,-2.016 2.385,-3.751 l 0.003,-4.617 c 0,-1.501 1.23,-2.737 2.735,-2.737 h 5.548 c 1.507,0 2.736,1.235 2.736,2.737 v 5.549 c 0,1.507 -1.229,2.735 -2.736,2.737 l -4.543,-0.002 c -2.005,0.002 -3.164,0.438 -3.164,2.957 v 1.493 c 0,1.778 0.488,2.955 2.656,2.955 h 2.837 c 1.065,0 1.934,0.87 1.934,1.934 v 3.927 c 0,1.063 -0.868,1.934 -1.934,1.934 h -2.644 c -2.489,0 -3.143,1.3 -3.143,3.722 v 3.636 c 0,1.402 -1.146,2.553 -2.548,2.553 l -5.172,-0.002 c -1.406,0.002 -2.553,-1.148 -2.553,-2.551 v -3.929 c 0.003,-2.931 -1.04,-3.558 -3.535,-3.558 h -6.264 c -1.364,0 -2.479,-1.116 -2.479,-2.479 V 64.89 c 0.002,-1.36 1.115,-2.474 2.479,-2.474 h 7.648 c 1.36,-0.005 2.478,1.111 2.478,2.476 z m -3.963,18.286 c 0,-0.94 -0.773,-1.711 -1.715,-1.711 h -4.253 c -0.944,0 -1.714,0.772 -1.717,1.711 l 0.003,4.256 c -0.003,0.946 0.77,1.718 1.714,1.718 h 4.253 c 0.942,0 1.715,-0.771 1.715,-1.714 z"
               data-part-id="logo__item--logo_0__2"
               id="path848"
               style="fill:url(#SVGID_3_)" />
            <linearGradient
               id="SVGID_4_"
               gradientUnits="userSpaceOnUse"
               x1="71.503899"
               y1="21.893999"
               x2="71.503899"
               y2="89.497498">
              <stop
                 offset="0"
                 style="stop-color:#7DBDDA"
                 id="stop850" />
              <stop
                 offset="1"
                 style="stop-color:#659AB2"
                 id="stop852" />
            </linearGradient>
            <path
               fill-rule="evenodd"
               clip-rule="evenodd"
               fill="url(#SVGID_4_)"
               d="m 73.604,72.006 h -6.349 c -2.26,0 -3.544,0.337 -3.544,3.404 v 3.073 c 0,2.091 0.617,3.393 2.828,3.393 h 1.802 c 1.986,0 2.446,-0.76 2.446,-2.388 v -3.016 c 0,-1.048 0.857,-1.902 1.907,-1.902 l 3.865,-0.003 c 1.044,0.003 1.905,0.857 1.905,1.905 v 2.808 c 0,2.589 2.016,2.388 3.752,2.388 h 4.612 c 1.505,0 2.739,1.229 2.739,2.734 v 5.552 c 0,1.502 -1.234,2.735 -2.739,2.735 l -5.544,-10e-4 c -1.508,0 -2.735,-1.232 -2.741,-2.734 l 0.006,-4.548 c -0.006,-2.004 -0.438,-3.163 -2.96,-3.163 H 74.1 c -1.78,0 -2.958,0.488 -2.958,2.658 v 2.837 c 0,1.064 -0.869,1.935 -1.934,1.935 h -3.926 c -1.064,0 -1.937,-0.87 -1.937,-1.935 v -2.646 c 0,-2.489 -1.296,-3.141 -3.719,-3.14 H 55.99 c -1.401,0 -2.552,-1.148 -2.552,-2.551 L 53.44,74.23 c -0.002,-1.407 1.148,-2.551 2.55,-2.551 h 3.929 c 2.934,0 3.557,-1.042 3.557,-3.538 v -6.264 c 0,-1.362 1.119,-2.478 2.48,-2.478 h 7.647 c 1.363,0 2.477,1.115 2.477,2.478 v 7.649 c 0.002,1.364 -1.113,2.48 -2.476,2.48 z"
               data-part-id="logo__item--logo_0__3"
               id="path855"
               style="fill:url(#SVGID_4_)" />
            <linearGradient
               id="SVGID_5_"
               gradientUnits="userSpaceOnUse"
               x1="24.6152"
               y1="21.894501"
               x2="24.6152"
               y2="89.498199">
              <stop
                 offset="0"
                 style="stop-color:#7DBDDA"
                 id="stop857" />
              <stop
                 offset="1"
                 style="stop-color:#659AB2"
                 id="stop859" />
            </linearGradient>
            <path
               fill-rule="evenodd"
               clip-rule="evenodd"
               fill="url(#SVGID_5_)"
               d="m 20.574,23.79 v 6.348 c 0,2.257 0.34,3.542 3.409,3.542 h 3.072 c 2.093,0 3.395,-0.615 3.395,-2.826 l -0.003,-1.802 c 0.003,-1.987 -0.758,-2.45 -2.386,-2.45 h -3.015 c -1.05,0 -1.907,-0.855 -1.907,-1.904 v -3.866 c 0,-1.046 0.858,-1.904 1.905,-1.904 h 2.806 c 2.59,0 2.388,-2.015 2.388,-3.753 l 0.001,-4.614 c 0,-1.504 1.231,-2.738 2.733,-2.738 h 5.55 c 1.503,0 2.736,1.234 2.736,2.738 l -0.001,5.548 c 0,1.504 -1.232,2.735 -2.735,2.737 l -4.546,-0.002 c -2.004,0.002 -3.163,0.435 -3.163,2.957 v 1.492 c 0.002,1.78 0.489,2.958 2.657,2.958 h 2.839 c 1.065,0 1.934,0.87 1.934,1.933 v 3.927 c 0,1.063 -0.869,1.933 -1.934,1.933 h -2.647 c -2.489,0 -3.143,1.298 -3.139,3.72 v 3.639 c 0,1.402 -1.149,2.552 -2.551,2.552 L 22.8,43.95 c -1.404,0.003 -2.55,-1.146 -2.55,-2.548 v -3.929 c 0.003,-2.932 -1.04,-3.558 -3.538,-3.558 h -6.263 c -1.361,0 -2.479,-1.116 -2.479,-2.478 v -7.649 c 0,-1.362 1.118,-2.475 2.479,-2.475 h 7.648 c 1.362,-0.004 2.477,1.112 2.477,2.477 z m -3.963,18.288 c 0,-0.942 -0.772,-1.712 -1.712,-1.712 h -4.254 c -0.946,0 -1.715,0.772 -1.715,1.712 v 4.255 c 0,0.945 0.77,1.718 1.715,1.718 h 4.254 c 0.94,0 1.712,-0.773 1.712,-1.716 z"
               data-part-id="logo__item--logo_0__4"
               id="path862"
               style="fill:url(#SVGID_5_)" />
          </g>
        </g>
      </g>
    </g>
  </g>
</svg>
